REM DIRINDEX 1\2\4,1\2\5,1\2\6,1\3\7,1\3\8,1\3\9,1\3\10
REM DIRNAME cjc058,folder01,folder02,folder03,folder04,folder05,folder06,folder07,folder08,folder09
TITLE ""
FILE "a_36.mp3" MP3
  TRACK 01 AUDIO
    TITLE "0:"
    INDEX 01 00:00:00
  TRACK 02 AUDIO
    TITLE "6:cjc058_0625"
    INDEX 01 00:00:11
  TRACK 03 AUDIO
    TITLE "0:"
    INDEX 01 00:05:61
  TRACK 04 AUDIO
    TITLE "6:cjc058_0626"
    INDEX 01 00:06:26
  TRACK 05 AUDIO
    TITLE "0:"
    INDEX 01 00:09:20
  TRACK 06 AUDIO
    TITLE "4:cjc058_0627"
    INDEX 01 00:09:63
  TRACK 07 AUDIO
    TITLE "0:"
    INDEX 01 00:11:29
  TRACK 08 AUDIO
    TITLE "5:cjc058_0628"
    INDEX 01 00:11:54
  TRACK 09 AUDIO
    TITLE "0:"
    INDEX 01 00:13:04
  TRACK 10 AUDIO
    TITLE "4:cjc058_0629"
    INDEX 01 00:14:06
  TRACK 11 AUDIO
    TITLE "0:"
    INDEX 01 00:15:17
  TRACK 12 AUDIO
    TITLE "5:cjc058_0630"
    INDEX 01 00:15:46
  TRACK 13 AUDIO
    TITLE "0:"
    INDEX 01 00:16:67
  TRACK 14 AUDIO
    TITLE "4:cjc058_0631"
    INDEX 01 00:17:72
  TRACK 15 AUDIO
    TITLE "0:"
    INDEX 01 00:19:56
  TRACK 16 AUDIO
    TITLE "5:cjc058_0632"
    INDEX 01 00:20:06
  TRACK 17 AUDIO
    TITLE "0:"
    INDEX 01 00:22:19
  TRACK 18 AUDIO
    TITLE "4:cjc058_0633"
    INDEX 01 00:23:22
  TRACK 19 AUDIO
    TITLE "0:"
    INDEX 01 00:24:47
  TRACK 20 AUDIO
    TITLE "5:cjc058_0634"
    INDEX 01 00:25:01
  TRACK 21 AUDIO
    TITLE "0:"
    INDEX 01 00:26:32
  TRACK 22 AUDIO
    TITLE "4:cjc058_0635"
    INDEX 01 00:27:34
  TRACK 23 AUDIO
    TITLE "0:"
    INDEX 01 00:28:74
  TRACK 24 AUDIO
    TITLE "5:cjc058_0636"
    INDEX 01 00:29:29
  TRACK 25 AUDIO
    TITLE "0:"
    INDEX 01 00:31:71
  TRACK 26 AUDIO
    TITLE "4:cjc058_0637"
    INDEX 01 00:32:74
  TRACK 27 AUDIO
    TITLE "0:"
    INDEX 01 00:34:28
  TRACK 28 AUDIO
    TITLE "5:cjc058_0638"
    INDEX 01 00:34:55
  TRACK 29 AUDIO
    TITLE "0:"
    INDEX 01 00:37:73
  TRACK 30 AUDIO
    TITLE "4:cjc058_0639"
    INDEX 01 00:39:02
  TRACK 31 AUDIO
    TITLE "0:"
    INDEX 01 00:40:50
  TRACK 32 AUDIO
    TITLE "5:cjc058_0640"
    INDEX 01 00:41:04
  TRACK 33 AUDIO
    TITLE "0:"
    INDEX 01 00:42:37
  TRACK 34 AUDIO
    TITLE "4:cjc058_0641"
    INDEX 01 00:43:37
  TRACK 35 AUDIO
    TITLE "0:"
    INDEX 01 00:45:08
  TRACK 36 AUDIO
    TITLE "5:cjc058_0642"
    INDEX 01 00:45:35
  TRACK 37 AUDIO
    TITLE "0:"
    INDEX 01 00:46:74
  TRACK 38 AUDIO
    TITLE "4:cjc058_0643"
    INDEX 01 00:48:02
  TRACK 39 AUDIO
    TITLE "0:"
    INDEX 01 00:49:43
  TRACK 40 AUDIO
    TITLE "5:cjc058_0644"
    INDEX 01 00:49:74
  TRACK 41 AUDIO
    TITLE "0:"
    INDEX 01 00:52:39
  TRACK 42 AUDIO
    TITLE "4:cjc058_0645"
    INDEX 01 00:53:43
  TRACK 43 AUDIO
    TITLE "0:"
    INDEX 01 00:55:10
  TRACK 44 AUDIO
    TITLE "5:cjc058_0646"
    INDEX 01 00:55:42
  TRACK 45 AUDIO
    TITLE "0:"
    INDEX 01 00:57:70
  TRACK 46 AUDIO
    TITLE "4:cjc058_0647"
    INDEX 01 00:58:73
  TRACK 47 AUDIO
    TITLE "0:"
    INDEX 01 01:00:41
  TRACK 48 AUDIO
    TITLE "5:cjc058_0648"
    INDEX 01 01:00:70
  TRACK 49 AUDIO
    TITLE "0:"
    INDEX 01 01:02:34
  TRACK 50 AUDIO
    TITLE "4:cjc058_0649"
    INDEX 01 01:03:37
  TRACK 51 AUDIO
    TITLE "0:"
    INDEX 01 01:05:17
  TRACK 52 AUDIO
    TITLE "5:cjc058_0650"
    INDEX 01 01:05:44
  TRACK 53 AUDIO
    TITLE "0:"
    INDEX 01 01:07:15
  TRACK 54 AUDIO
    TITLE "4:cjc058_0651"
    INDEX 01 01:08:19
  TRACK 55 AUDIO
    TITLE "0:"
    INDEX 01 01:09:67
  TRACK 56 AUDIO
    TITLE "5:cjc058_0652"
    INDEX 01 01:10:24
  TRACK 57 AUDIO
    TITLE "0:"
    INDEX 01 01:11:70
  TRACK 58 AUDIO
    TITLE "4:cjc058_0653"
    INDEX 01 01:13:00
  TRACK 59 AUDIO
    TITLE "0:"
    INDEX 01 01:14:49
  TRACK 60 AUDIO
    TITLE "5:cjc058_0654"
    INDEX 01 01:15:05
  TRACK 61 AUDIO
    TITLE "0:"
    INDEX 01 01:16:60
  TRACK 62 AUDIO
    TITLE "4:cjc058_0655"
    INDEX 01 01:17:65
  TRACK 63 AUDIO
    TITLE "0:"
    INDEX 01 01:19:28
  TRACK 64 AUDIO
    TITLE "5:cjc058_0656"
    INDEX 01 01:19:58
  TRACK 65 AUDIO
    TITLE "0:"
    INDEX 01 01:21:16
  TRACK 66 AUDIO
    TITLE "4:cjc058_0657"
    INDEX 01 01:22:19
  TRACK 67 AUDIO
    TITLE "0:"
    INDEX 01 01:23:52
  TRACK 68 AUDIO
    TITLE "5:cjc058_0658"
    INDEX 01 01:24:08
  TRACK 69 AUDIO
    TITLE "0:"
    INDEX 01 01:25:58
  TRACK 70 AUDIO
    TITLE "4:cjc058_0659"
    INDEX 01 01:26:64
  TRACK 71 AUDIO
    TITLE "0:"
    INDEX 01 01:28:31
  TRACK 72 AUDIO
    TITLE "5:cjc058_0660"
    INDEX 01 01:28:63
  TRACK 73 AUDIO
    TITLE "0:"
    INDEX 01 01:31:28
  TRACK 74 AUDIO
    TITLE "4:cjc058_0661"
    INDEX 01 01:32:27
  TRACK 75 AUDIO
    TITLE "0:"
    INDEX 01 01:34:10
  TRACK 76 AUDIO
    TITLE "5:cjc058_0662"
    INDEX 01 01:34:38
  TRACK 77 AUDIO
    TITLE "0:"
    INDEX 01 01:35:61
  TRACK 78 AUDIO
    TITLE "4:cjc058_0663"
    INDEX 01 01:36:64
  TRACK 79 AUDIO
    TITLE "0:"
    INDEX 01 01:38:55
  TRACK 80 AUDIO
    TITLE "5:cjc058_0664"
    INDEX 01 01:39:12
  TRACK 81 AUDIO
    TITLE "0:"
    INDEX 01 01:40:38
  TRACK 82 AUDIO
    TITLE "4:cjc058_0665"
    INDEX 01 01:41:38
  TRACK 83 AUDIO
    TITLE "0:"
    INDEX 01 01:42:73
  TRACK 84 AUDIO
    TITLE "5:cjc058_0666"
    INDEX 01 01:43:27
  TRACK 85 AUDIO
    TITLE "0:"
    INDEX 01 01:44:50
  TRACK 86 AUDIO
    TITLE "4:cjc058_0667"
    INDEX 01 01:45:49
  TRACK 87 AUDIO
    TITLE "0:"
    INDEX 01 01:46:70
  TRACK 88 AUDIO
    TITLE "5:cjc058_0668"
    INDEX 01 01:47:27
  TRACK 89 AUDIO
    TITLE "0:"
    INDEX 01 01:49:67
  TRACK 90 AUDIO
    TITLE "4:cjc058_0669"
    INDEX 01 01:50:68
  TRACK 91 AUDIO
    TITLE "0:"
    INDEX 01 01:52:28
  TRACK 92 AUDIO
    TITLE "5:cjc058_0670"
    INDEX 01 01:52:59
  TRACK 93 AUDIO
    TITLE "0:"
    INDEX 01 01:55:34
  TRACK 94 AUDIO
    TITLE "4:cjc058_0671"
    INDEX 01 01:56:37
  TRACK 95 AUDIO
    TITLE "0:"
    INDEX 01 01:58:01
  TRACK 96 AUDIO
    TITLE "5:cjc058_0672"
    INDEX 01 01:58:32
  TRACK 97 AUDIO
    TITLE "0:"
    INDEX 01 02:00:37
  TRACK 98 AUDIO
    TITLE "4:cjc058_0673"
    INDEX 01 02:01:37
  TRACK 99 AUDIO
    TITLE "0:"
    INDEX 01 02:03:02
  TRACK 100 AUDIO
    TITLE "5:cjc058_0674"
    INDEX 01 02:03:30
  TRACK 101 AUDIO
    TITLE "0:"
    INDEX 01 02:04:57
  TRACK 102 AUDIO
    TITLE "4:cjc058_0675"
    INDEX 01 02:05:58
  TRACK 103 AUDIO
    TITLE "0:"
    INDEX 01 02:07:43
  TRACK 104 AUDIO
    TITLE "5:cjc058_0676"
    INDEX 01 02:07:71
  TRACK 105 AUDIO
    TITLE "0:"
    INDEX 01 02:10:67
  TRACK 106 AUDIO
    TITLE "4:cjc058_0677"
    INDEX 01 02:11:70
  TRACK 107 AUDIO
    TITLE "0:"
    INDEX 01 02:13:32
  TRACK 108 AUDIO
    TITLE "5:cjc058_0678"
    INDEX 01 02:13:61
  TRACK 109 AUDIO
    TITLE "0:"
    INDEX 01 02:15:13
  TRACK 110 AUDIO
    TITLE "4:cjc058_0679"
    INDEX 01 02:16:17
  TRACK 111 AUDIO
    TITLE "0:"
    INDEX 01 02:17:55
  TRACK 112 AUDIO
    TITLE "5:cjc058_0680"
    INDEX 01 02:18:12
  TRACK 113 AUDIO
    TITLE "0:"
    INDEX 01 02:19:40
  TRACK 114 AUDIO
    TITLE "4:cjc058_0681"
    INDEX 01 02:20:44
  TRACK 115 AUDIO
    TITLE "0:"
    INDEX 01 02:22:23
  TRACK 116 AUDIO
    TITLE "5:cjc058_0682"
    INDEX 01 02:22:53
  TRACK 117 AUDIO
    TITLE "0:"
    INDEX 01 02:25:49
  TRACK 118 AUDIO
    TITLE "4:cjc058_0683"
    INDEX 01 02:26:50
  TRACK 119 AUDIO
    TITLE "0:"
    INDEX 01 02:28:37
  TRACK 120 AUDIO
    TITLE "5:cjc058_0684"
    INDEX 01 02:28:67
  TRACK 121 AUDIO
    TITLE "0:"
    INDEX 01 02:30:50
  TRACK 122 AUDIO
    TITLE "4:cjc058_0685"
    INDEX 01 02:31:55
  TRACK 123 AUDIO
    TITLE "0:"
    INDEX 01 02:32:69
  TRACK 124 AUDIO
    TITLE "5:cjc058_0686"
    INDEX 01 02:33:23
  TRACK 125 AUDIO
    TITLE "0:"
    INDEX 01 02:35:26
  TRACK 126 AUDIO
    TITLE "4:cjc058_0687"
    INDEX 01 02:36:25
  TRACK 127 AUDIO
    TITLE "0:"
    INDEX 01 02:37:70
  TRACK 128 AUDIO
    TITLE "5:cjc058_0688"
    INDEX 01 02:38:26
  TRACK 129 AUDIO
    TITLE "0:"
    INDEX 01 02:42:49
  TRACK 130 AUDIO
    TITLE "4:cjc058_0689"
    INDEX 01 02:43:51
  TRACK 131 AUDIO
    TITLE "0:"
    INDEX 01 02:44:70
  TRACK 132 AUDIO
    TITLE "5:cjc058_0690"
    INDEX 01 02:45:24
  TRACK 133 AUDIO
    TITLE "0:"
    INDEX 01 02:47:54
  TRACK 134 AUDIO
    TITLE "4:cjc058_0691"
    INDEX 01 02:48:54
  TRACK 135 AUDIO
    TITLE "0:"
    INDEX 01 02:50:49
  TRACK 136 AUDIO
    TITLE "5:cjc058_0692"
    INDEX 01 02:51:03
  TRACK 137 AUDIO
    TITLE "0:"
    INDEX 01 02:52:52
  TRACK 138 AUDIO
    TITLE "4:cjc058_0693"
    INDEX 01 02:53:53
  TRACK 139 AUDIO
    TITLE "0:"
    INDEX 01 02:55:23
  TRACK 140 AUDIO
    TITLE "5:cjc058_0694"
    INDEX 01 02:55:52
  TRACK 141 AUDIO
    TITLE "0:"
    INDEX 01 02:59:40
  TRACK 142 AUDIO
    TITLE "4:cjc058_0695"
    INDEX 01 03:00:43
  TRACK 143 AUDIO
    TITLE "0:"
    INDEX 01 03:02:19
  TRACK 144 AUDIO
    TITLE "5:cjc058_0696"
    INDEX 01 03:02:50
  TRACK 145 AUDIO
    TITLE "0:"
    INDEX 01 03:05:07
  TRACK 146 AUDIO
    TITLE "4:cjc058_0697"
    INDEX 01 03:06:11
  TRACK 147 AUDIO
    TITLE "0:"
    INDEX 01 03:07:43
  TRACK 148 AUDIO
    TITLE "5:cjc058_0698"
    INDEX 01 03:07:73
  TRACK 149 AUDIO
    TITLE "0:"
    INDEX 01 03:10:44
  TRACK 150 AUDIO
    TITLE "4:cjc058_0699"
    INDEX 01 03:11:45
  TRACK 151 AUDIO
    TITLE "0:"
    INDEX 01 03:13:07
  TRACK 152 AUDIO
    TITLE "5:cjc058_0700"
    INDEX 01 03:13:36
  TRACK 153 AUDIO
    TITLE "0:"
    INDEX 01 03:16:13
